<?xml version="1.0" encoding="utf-8"?>
<!-- Generator: Adobe Illustrator 16.0.0, SVG Export Plug-In . SVG Version: 6.00 Build 0)  -->
<!DOCTYPE svg PUBLIC "-//W3C//DTD SVG 1.1//EN" "http://www.w3.org/Graphics/SVG/1.1/DTD/svg11.dtd">
<svg version="1.1" xmlns="http://www.w3.org/2000/svg" xmlns:xlink="http://www.w3.org/1999/xlink" x="0px" y="0px" width="288px"
	 height="311.837px" viewBox="0 0 288 311.837" enable-background="new 0 0 288 311.837" xml:space="preserve">
<symbol  id="onibus" viewBox="-35 -33.5 70 67">
	<path fill-rule="evenodd" clip-rule="evenodd" d="M32.12,25.5h-0.128C31.417,25.5,31,25.376,30,25.176v1.217
		c0,4.434-4.203,7.107-8.715,7.107h-42.889c-4.512,0-8.396-2.674-8.396-7.107v-1.109c0,0.136-0.411,0.216-0.88,0.216h-0.128
		c-1.985,0-3.992-1.344-3.992-3.003V22.16V10.173V9.145c0-1.659,2.007-2.645,3.992-2.645h0.128c0.469,0,0.88,0.059,0.88,0.165
		v-24.424c0-3.751,3-7.401,6-8.439v-4.467c0-1.565,1.667-2.834,3.233-2.834h4.331c1.565,0,2.436,1.269,2.436,2.834v4.166h28v-4.166
		c0-1.565,1.667-2.834,3.233-2.834h4.331c1.565,0,2.436,1.269,2.436,2.834v4.825c3,1.367,6,4.684,6,8.082V6.75
		c1-0.158,1.417-0.25,1.992-0.25h0.128C34.105,6.5,35,7.486,35,9.145v1.028V22.16v0.337C35,24.156,34.105,25.5,32.12,25.5z
		 M8,29.497C8,28.394,7.106,27.5,6.003,27.5H-6.003C-7.106,27.5-8,28.394-8,29.497v0.006c0,1.103,0.894,1.997,1.997,1.997H6.003
		C7.106,31.5,8,30.606,8,29.503V29.497z M-21.021-20.374c-2.21,0-4.003,1.793-4.003,4.004c0,2.212,1.793,4.005,4.003,4.005
		c2.212,0,4.006-1.793,4.006-4.005C-17.015-18.581-18.809-20.374-21.021-20.374z M-1-3.5h-20.152C-23.359-3.5-25-1.885-25,0.491
		v19.363c0,2.377,1.641,4.646,3.848,4.646H-1V-3.5z M20.934-20.374c-2.211,0-4.004,1.793-4.004,4.004
		c0,2.212,1.793,4.005,4.004,4.005c2.212,0,4.004-1.793,4.004-4.005C24.938-18.581,23.146-20.374,20.934-20.374z M25,0.491
		C25-1.885,23.008-3.5,20.801-3.5H2v28h18.801c2.207,0,4.199-2.269,4.199-4.646V0.491z"/>
</symbol>
<g id="_x33_1">
	<path fill-rule="evenodd" clip-rule="evenodd" fill="#16A568" d="M231.354,117.806c0,45.576-84.424,122.163-84.424,122.163
		s-84.414-76.587-84.414-122.163c0-45.581,37.646-82.44,84.414-82.44C193.298,35.365,231.354,72.225,231.354,117.806
		L231.354,117.806z"/>
	<path fill-rule="evenodd" clip-rule="evenodd" fill="#087E4E" d="M146.339,35.383c46.409,0.404,83.646,37.093,83.646,82.422
		c0,43.043-75.274,113.731-83.646,121.46V35.383z"/>
	<circle fill-rule="evenodd" clip-rule="evenodd" fill="#83BEA7" cx="147.297" cy="116.322" r="65.449"/>
	<circle fill-rule="evenodd" clip-rule="evenodd" fill="#FFFFFF" cx="147.297" cy="116.322" r="52.799"/>
	<path fill-rule="evenodd" clip-rule="evenodd" fill="#FFFFFF" d="M155,87.84c0,1.103-0.894,1.997-1.997,1.997h-12.006
		c-1.104,0-1.997-0.894-1.997-1.997v-0.006c0-1.103,0.894-1.997,1.997-1.997h12.006c1.103,0,1.997,0.894,1.997,1.997V87.84z"/>
	
		<use xlink:href="#onibus"  width="70" height="67" x="-35" y="-33.5" transform="matrix(1 0 0 -1 147 117.3369)" overflow="visible"/>
</g>
<g id="Layer_1">
</g>
</svg>
